# Blender 4.4.0
# www.blender.org
o Cube
v 0.685014 0.017690 -0.129916
v 0.685014 -0.017690 -0.129916
v 0.685014 0.017690 0.129916
v 0.685014 -0.017690 0.129916
v -0.685014 0.017690 -0.129916
v -0.685014 -0.017690 -0.129916
v -0.685014 0.017690 0.129916
v -0.685014 -0.017690 0.129916
vn -0.0000 1.0000 -0.0000
vn -0.0000 -0.0000 1.0000
vn -1.0000 -0.0000 -0.0000
vn -0.0000 -1.0000 -0.0000
vn 1.0000 -0.0000 -0.0000
vn -0.0000 -0.0000 -1.0000
vt 0.026126 0.499930
vt 0.276039 0.250016
vt 0.276039 0.499930
vt 0.525953 0.000102
vt 0.525953 0.250016
vt 0.276039 0.750048
vt 0.026126 0.500134
vt 0.276039 0.500134
vt 0.525953 0.499929
vt 0.775867 0.250016
vt 0.775867 0.499929
vt 0.000102 0.999898
vt 0.025921 0.000102
vt 0.025921 0.999898
vt 0.026126 0.250016
vt 0.276039 0.000102
vt 0.026126 0.750048
vt 0.000102 0.000102
s 0
f 5/1/1 3/2/1 1/3/1
f 3/2/2 8/4/2 4/5/2
f 7/6/3 6/7/3 8/8/3
f 2/9/4 8/10/4 6/11/4
f 1/3/5 4/5/5 2/9/5
f 5/12/6 2/13/6 6/14/6
f 5/1/1 7/15/1 3/2/1
f 3/2/2 7/16/2 8/4/2
f 7/6/3 5/17/3 6/7/3
f 2/9/4 4/5/4 8/10/4
f 1/3/5 3/2/5 4/5/5
f 5/12/6 1/18/6 2/13/6
