# Blender 4.4.0
# www.blender.org
o CashRegister
v -0.500000 0.100000 0.300000
v -0.500000 0.300000 0.300000
v -0.500000 0.100000 -0.300000
v -0.500000 0.300000 -0.300000
v 0.500000 0.100000 0.300000
v 0.500000 0.300000 0.300000
v 0.500000 0.100000 -0.300000
v 0.500000 0.300000 -0.300000
v -0.400000 0.330778 0.197205
v -0.400000 0.380691 0.194257
v -0.400000 0.301299 -0.301925
v -0.400000 0.351212 -0.304873
v 0.400000 0.330778 0.197205
v 0.400000 0.380691 0.194257
v 0.400000 0.301299 -0.301925
v 0.400000 0.351212 -0.304873
v -0.300000 0.291571 0.278687
v -0.300000 0.573478 0.381293
v -0.300000 0.308671 0.231702
v -0.300000 0.590579 0.334308
v 0.300000 0.291571 0.278687
v 0.300000 0.573478 0.381293
v 0.300000 0.308671 0.231702
v 0.300000 0.590579 0.334308
vn -1.0000 -0.0000 -0.0000
vn -0.0000 -0.0000 -1.0000
vn 1.0000 -0.0000 -0.0000
vn -0.0000 -0.0000 1.0000
vn -0.0000 -1.0000 -0.0000
vn -0.0000 1.0000 -0.0000
vn -0.0000 -0.0590 -0.9983
vn -0.0000 0.0590 0.9983
vn -0.0000 -0.9983 0.0590
vn -0.0000 0.9983 -0.0590
vn -0.0000 0.3420 -0.9397
vn -0.0000 -0.3420 0.9397
vn -0.0000 -0.9397 -0.3420
vn -0.0000 0.9397 0.3420
vt 0.000359 0.000359
vt 0.199641 0.199641
vt 0.000359 0.199641
vt 0.000359 0.200359
vt 0.199641 0.399641
vt 0.000359 0.399641
vt 0.200359 0.199641
vt 0.399641 0.000359
vt 0.399641 0.199641
vt 0.200359 0.399641
vt 0.399641 0.200359
vt 0.399641 0.399641
vt 0.000359 0.400359
vt 0.199641 0.599641
vt 0.000359 0.599641
vt 0.200359 0.400359
vt 0.399641 0.599641
vt 0.200359 0.599641
vt 0.400359 0.199641
vt 0.599641 0.000359
vt 0.599641 0.199641
vt 0.400359 0.399641
vt 0.599641 0.200359
vt 0.599641 0.399641
vt 0.599641 0.599641
vt 0.400359 0.400359
vt 0.599641 0.400359
vt 0.000359 0.600359
vt 0.199641 0.799641
vt 0.000359 0.799641
vt 0.200359 0.600359
vt 0.399641 0.799641
vt 0.200359 0.799641
vt 0.400359 0.600359
vt 0.599641 0.799641
vt 0.400359 0.799641
vt 0.799641 0.199641
vt 0.600359 0.000359
vt 0.799641 0.000359
vt 0.600359 0.399641
vt 0.799641 0.200359
vt 0.799641 0.399641
vt 0.600359 0.599641
vt 0.799641 0.400359
vt 0.799641 0.599641
vt 0.600359 0.799641
vt 0.799641 0.600359
vt 0.799641 0.799641
vt 0.000359 0.800359
vt 0.199641 0.999641
vt 0.000359 0.999641
vt 0.200359 0.800359
vt 0.399641 0.999641
vt 0.200359 0.999641
vt 0.199641 0.000359
vt 0.199641 0.200359
vt 0.200359 0.000359
vt 0.200359 0.200359
vt 0.199641 0.400359
vt 0.399641 0.400359
vt 0.400359 0.000359
vt 0.400359 0.200359
vt 0.400359 0.599641
vt 0.199641 0.600359
vt 0.399641 0.600359
vt 0.599641 0.600359
vt 0.600359 0.199641
vt 0.600359 0.200359
vt 0.600359 0.400359
vt 0.600359 0.600359
vt 0.199641 0.800359
vt 0.399641 0.800359
s 0
f 2/1/1 3/2/1 1/3/1
f 4/4/2 7/5/2 3/6/2
f 8/7/3 5/8/3 7/9/3
f 6/10/4 1/11/4 5/12/4
f 7/13/5 1/14/5 3/15/5
f 4/16/6 6/17/6 8/18/6
f 10/19/1 11/20/1 9/21/1
f 12/22/7 15/23/7 11/24/7
f 15/25/3 14/26/3 13/27/3
f 14/28/8 9/29/8 13/30/8
f 15/31/9 9/32/9 11/33/9
f 12/34/10 14/35/10 16/36/10
f 17/37/1 20/38/1 19/39/1
f 20/40/11 23/41/11 19/42/11
f 24/43/3 21/44/3 23/45/3
f 22/46/12 17/47/12 21/48/12
f 23/49/13 17/50/13 19/51/13
f 20/52/14 22/53/14 24/54/14
f 2/1/1 4/55/1 3/2/1
f 4/4/2 8/56/2 7/5/2
f 8/7/3 6/57/3 5/8/3
f 6/10/4 2/58/4 1/11/4
f 7/13/5 5/59/5 1/14/5
f 4/16/6 2/60/6 6/17/6
f 10/19/1 12/61/1 11/20/1
f 12/22/7 16/62/7 15/23/7
f 15/25/3 16/63/3 14/26/3
f 14/28/8 10/64/8 9/29/8
f 15/31/9 13/65/9 9/32/9
f 12/34/10 10/66/10 14/35/10
f 17/37/1 18/67/1 20/38/1
f 20/40/11 24/68/11 23/41/11
f 24/43/3 22/69/3 21/44/3
f 22/46/12 18/70/12 17/47/12
f 23/49/13 21/71/13 17/50/13
f 20/52/14 18/72/14 22/53/14
