# Blender 4.4.0
# www.blender.org
mtllib pantryShelf.mtl
o Cube
v 0.069789 1.098510 -1.000000
v 0.069789 -1.098510 -1.000000
v 0.069789 1.098510 1.000000
v 0.069789 -1.098510 1.000000
v -0.069789 1.098510 -1.000000
v -0.069789 -1.098510 -1.000000
v -0.069789 1.098510 1.000000
v -0.069789 -1.098510 1.000000
v 0.069790 1.036997 0.989932
v 0.670433 1.036997 0.989932
v 0.069790 1.093570 0.989932
v 0.670433 1.093570 0.989932
v 0.069790 1.036997 -0.994289
v 0.670433 1.036997 -0.994289
v 0.069790 1.093570 -0.994289
v 0.670433 1.093570 -0.994289
v 0.069789 0.492467 0.996143
v 0.643197 0.492467 0.996143
v 0.069789 0.555100 0.996143
v 0.643197 0.555100 0.996143
v 0.069789 0.492467 -0.997518
v 0.643197 0.492467 -0.997518
v 0.069789 0.555100 -0.997518
v 0.643197 0.555100 -0.997518
v 0.069789 0.079225 0.996471
v 0.642256 0.079225 0.996471
v 0.069789 0.148832 0.996471
v 0.642256 0.148832 0.996471
v 0.069789 0.079225 -0.998882
v 0.642256 0.079225 -0.998882
v 0.069789 0.148832 -0.998882
v 0.642256 0.148832 -0.998882
v 0.069789 -0.411085 0.999078
v 0.649940 -0.411085 0.999078
v 0.069789 -0.343110 0.999078
v 0.649940 -0.343110 0.999078
v 0.069789 -0.411085 -1.004768
v 0.649940 -0.411085 -1.004768
v 0.069789 -0.343110 -1.004768
v 0.649940 -0.343110 -1.004768
v 0.069789 -1.089315 0.997186
v 0.630042 -1.089315 0.997186
v 0.069789 -1.016279 0.997186
v 0.630042 -1.016279 0.997186
v 0.069789 -1.089315 -0.997519
v 0.630042 -1.089315 -0.997519
v 0.069789 -1.016279 -0.997519
v 0.630042 -1.016279 -0.997519
v 0.121068 0.555100 0.967898
v 0.121068 0.906333 0.967898
v 0.121068 0.555100 0.045876
v 0.121068 0.906333 0.045876
v 0.583933 0.555100 0.967898
v 0.583933 0.906333 0.967898
v 0.583933 0.555100 0.045876
v 0.583933 0.906333 0.045876
v 0.120350 0.555100 -0.060558
v 0.120350 0.795395 -0.060558
v 0.120350 0.555100 -0.949202
v 0.120350 0.795395 -0.949202
v 0.572884 0.555100 -0.060558
v 0.572884 0.795395 -0.060558
v 0.572884 0.555100 -0.949202
v 0.572884 0.795395 -0.949202
v 0.171849 0.148832 0.949777
v 0.171849 0.388319 0.949777
v 0.171849 0.148832 -0.328837
v 0.171849 0.388319 -0.328837
v 0.541422 0.148832 0.949777
v 0.541422 0.388319 0.949777
v 0.541422 0.148832 -0.328837
v 0.541422 0.388319 -0.328837
v 0.117944 -0.343109 0.966665
v 0.117944 -0.036899 0.966665
v 0.117944 -0.343109 0.155553
v 0.117944 -0.036899 0.155553
v 0.585788 -0.343109 0.966665
v 0.585788 -0.036899 0.966665
v 0.585788 -0.343109 0.155553
v 0.585788 -0.036899 0.155553
v 0.138492 -0.343110 -0.023882
v 0.138492 -0.065575 -0.023882
v 0.138492 -0.343110 -0.957730
v 0.138492 -0.065575 -0.957730
v 0.608122 -0.343110 -0.023882
v 0.608122 -0.065575 -0.023882
v 0.608122 -0.343110 -0.957730
v 0.608122 -0.065575 -0.957730
v 0.163181 -1.016279 0.931420
v 0.163181 -0.561134 0.931420
v 0.163181 -1.016279 -0.942377
v 0.163181 -0.561134 -0.942377
v 0.531670 -1.016279 0.931420
v 0.531670 -0.561134 0.931420
v 0.531670 -1.016279 -0.942377
v 0.531670 -0.561134 -0.942377
vn -0.0000 1.0000 -0.0000
vn -0.0000 -0.0000 1.0000
vn -1.0000 -0.0000 -0.0000
vn -0.0000 -1.0000 -0.0000
vn 1.0000 -0.0000 -0.0000
vn -0.0000 -0.0000 -1.0000
vt 0.527733 0.819746
vt 0.421934 0.713947
vt 0.527733 0.713947
vt 0.209929 0.825680
vt 0.315728 0.719881
vt 0.315728 0.825680
vt 0.049400 0.911927
vt 0.155199 0.806127
vt 0.155199 0.911927
vt 0.527733 0.925546
vt 0.421934 0.819746
vt 0.527733 0.819746
vt 0.316135 0.925546
vt 0.421934 0.819746
vt 0.421934 0.925546
vt 0.209929 0.931479
vt 0.315728 0.825680
vt 0.315728 0.931479
vt 0.997276 0.889204
vt 0.994551 0.433923
vt 0.997276 0.433923
vt 0.000000 0.455281
vt 0.104964 0.000000
vt 0.104964 0.455281
vt 0.997276 0.433923
vt 1.000000 0.889204
vt 0.997276 0.889204
vt 0.209929 0.455281
vt 0.104964 0.000000
vt 0.209929 0.000000
vt 0.853497 0.776940
vt 0.856221 0.881904
vt 0.853497 0.881904
vt 0.856221 0.776940
vt 0.858945 0.881904
vt 0.856221 0.881904
vt 0.991535 0.868560
vt 0.988519 0.433923
vt 0.991535 0.433923
vt 0.421934 0.434636
vt 0.527398 0.000000
vt 0.527398 0.434637
vt 0.991535 0.433923
vt 0.994551 0.868560
vt 0.991535 0.868560
vt 0.632861 0.434636
vt 0.527398 0.000000
vt 0.632861 -0.000000
vt 0.616929 0.713947
vt 0.619945 0.819411
vt 0.616929 0.819411
vt 0.850481 0.776940
vt 0.853497 0.882403
vt 0.850481 0.882403
vt 0.984350 0.433923
vt 0.980998 -0.000000
vt 0.984350 -0.000000
vt 0.632861 0.433923
vt 0.738415 0.000000
vt 0.738415 0.433923
vt 0.978620 0.433923
vt 0.981972 0.867847
vt 0.978620 0.867847
vt 0.843968 0.433923
vt 0.738415 0.000000
vt 0.843968 -0.000000
vt 0.601238 0.762722
vt 0.604590 0.868275
vt 0.601238 0.868275
vt 0.597886 0.762722
vt 0.597886 0.868275
vt 0.988519 0.873671
vt 0.985246 0.433923
vt 0.988519 0.433923
vt 0.209929 0.000000
vt 0.315931 0.439748
vt 0.209929 0.439748
vt 0.981972 0.433923
vt 0.985246 0.873671
vt 0.981972 0.873671
vt 0.421934 0.439748
vt 0.315931 0.000000
vt 0.421934 -0.000000
vt 0.843934 0.776940
vt 0.847207 0.882942
vt 0.843934 0.882942
vt 0.847207 0.776940
vt 0.850480 0.882942
vt 0.847207 0.882942
vt 0.975103 0.433923
vt 0.978620 0.858589
vt 0.975103 0.858589
vt 0.632861 0.858589
vt 0.738380 0.433923
vt 0.738380 0.858589
vt 0.971586 0.433923
vt 0.975103 0.858589
vt 0.971586 0.858589
vt 0.843934 0.858589
vt 0.738415 0.433923
vt 0.843934 0.433923
vt 0.418417 0.439748
vt 0.421934 0.545267
vt 0.418417 0.545267
vt 0.418417 0.545267
vt 0.421934 0.650786
vt 0.418417 0.650786
vt 0.571569 0.762722
vt 0.588483 0.713947
vt 0.588483 0.762722
vt 0.912861 0.784770
vt 0.929774 0.433923
vt 0.929774 0.784770
vt 0.605397 0.713947
vt 0.605397 0.762722
vt 0.929774 0.784770
vt 0.946688 0.433923
vt 0.946688 0.784770
vt 0.098175 0.806127
vt 0.049400 0.455281
vt 0.098175 0.455281
vt 0.146949 0.806127
vt 0.098175 0.455281
vt 0.146949 0.455281
vt 0.586315 0.809731
vt 0.597886 0.762722
vt 0.597886 0.809731
vt 0.620180 0.777653
vt 0.631752 0.434637
vt 0.631752 0.777653
vt 0.329093 0.809797
vt 0.340664 0.762788
vt 0.340664 0.809797
vt 0.957894 0.343016
vt 0.969465 -0.000000
vt 0.969465 0.343016
vt 0.193958 0.798297
vt 0.146949 0.455281
vt 0.193958 0.455281
vt 0.890943 0.776940
vt 0.843934 0.433923
vt 0.890943 0.433923
vt 0.394605 0.786697
vt 0.406138 0.719059
vt 0.406138 0.786697
vt 0.969465 0.280133
vt 0.980998 -0.000000
vt 0.980998 0.280133
vt 0.605397 0.781585
vt 0.616929 0.713947
vt 0.616929 0.781585
vt 0.960053 0.714056
vt 0.971586 0.433923
vt 0.971586 0.714056
vt 0.277567 0.719881
vt 0.209929 0.439748
vt 0.277567 0.439748
vt 0.345205 0.719881
vt 0.277567 0.439748
vt 0.345205 0.439748
vt 0.329093 0.762788
vt 0.343839 0.719881
vt 0.343839 0.762788
vt 0.193958 0.809902
vt 0.208704 0.455281
vt 0.208704 0.809902
vt 0.571569 0.805629
vt 0.586315 0.762722
vt 0.586315 0.805629
vt 0.929783 0.354621
vt 0.944529 -0.000000
vt 0.944529 0.354621
vt 0.886876 0.354621
vt 0.843968 -0.000000
vt 0.886876 -0.000000
vt 0.929783 0.354621
vt 0.886875 0.000000
vt 0.929783 0.000000
vt 0.406138 0.768459
vt 0.419503 0.719059
vt 0.419503 0.768459
vt 0.946688 0.789898
vt 0.960053 0.433923
vt 0.960053 0.789898
vt 0.315728 0.769281
vt 0.329093 0.719881
vt 0.329093 0.769281
vt 0.944529 0.355975
vt 0.957894 0.000000
vt 0.957894 0.355975
vt 0.394605 0.795723
vt 0.345205 0.439748
vt 0.394605 0.439748
vt 0.049400 0.811256
vt 0.000000 0.455281
vt 0.049400 0.455281
vt 0.527733 0.813070
vt 0.549651 0.713947
vt 0.549651 0.813070
vt 0.394605 0.719059
vt 0.416523 0.439748
vt 0.416523 0.719059
vt 0.549651 0.813070
vt 0.571569 0.713947
vt 0.571569 0.813070
vt 0.890943 0.713234
vt 0.912861 0.433923
vt 0.912860 0.713234
vt 0.521057 0.713947
vt 0.421934 0.434637
vt 0.521057 0.434637
vt 0.620180 0.713947
vt 0.521057 0.434637
vt 0.620180 0.434637
vt 0.421934 0.819746
vt 0.209929 0.719881
vt 0.049400 0.806127
vt 0.316135 0.819746
vt 0.209929 0.825680
vt 0.994551 0.889204
vt 0.000000 0.000000
vt 1.000000 0.433923
vt 0.104964 0.455281
vt 0.856221 0.776940
vt 0.858945 0.776940
vt 0.988519 0.868560
vt 0.421934 -0.000000
vt 0.994551 0.433923
vt 0.527398 0.434637
vt 0.619945 0.713947
vt 0.980998 0.433923
vt 0.632861 -0.000000
vt 0.981972 0.433923
vt 0.738415 0.433923
vt 0.604590 0.762722
vt 0.601238 0.762722
vt 0.985246 0.873671
vt 0.315931 0.000000
vt 0.985246 0.433923
vt 0.315931 0.439748
vt 0.847207 0.776940
vt 0.850480 0.776940
vt 0.978620 0.433923
vt 0.632861 0.433923
vt 0.975103 0.433923
vt 0.738415 0.858589
vt 0.421934 0.545267
vt 0.571569 0.713947
vt 0.912861 0.433923
vt 0.929774 0.433923
vt 0.049400 0.806127
vt 0.098175 0.806127
vt 0.620180 0.434637
vt 0.957894 -0.000000
vt 0.146949 0.798297
vt 0.969465 -0.000000
vt 0.605397 0.713947
vt 0.960053 0.433923
vt 0.209929 0.719881
vt 0.277567 0.719881
vt 0.193958 0.455281
vt 0.929783 -0.000000
vt 0.843968 0.354621
vt 0.886875 0.354621
vt 0.946688 0.433923
vt 0.315728 0.719881
vt 0.944529 0.000000
vt 0.345205 0.795723
vt -0.000000 0.811256
vt 0.527733 0.713947
vt 0.394605 0.439748
vt 0.549651 0.713947
vt 0.890943 0.433923
vt 0.421934 0.713947
s 0
usemtl Material
f 5/1/1 3/2/1 1/3/1
f 3/4/2 8/5/2 4/6/2
f 7/7/3 6/8/3 8/9/3
f 2/10/4 8/11/4 6/12/4
f 1/13/5 4/14/5 2/15/5
f 5/16/6 2/17/6 6/18/6
f 10/19/2 11/20/2 9/21/2
f 11/22/1 16/23/1 15/24/1
f 16/25/6 13/26/6 15/27/6
f 14/28/4 9/29/4 13/30/4
f 15/31/3 9/32/3 11/33/3
f 12/34/5 14/35/5 16/36/5
f 18/37/2 19/38/2 17/39/2
f 19/40/1 24/41/1 23/42/1
f 24/43/6 21/44/6 23/45/6
f 22/46/4 17/47/4 21/48/4
f 23/49/3 17/50/3 19/51/3
f 20/52/5 22/53/5 24/54/5
f 26/55/2 27/56/2 25/57/2
f 27/58/1 32/59/1 31/60/1
f 32/61/6 29/62/6 31/63/6
f 30/64/4 25/65/4 29/66/4
f 31/67/3 25/68/3 27/69/3
f 28/70/5 30/69/5 32/71/5
f 34/72/2 35/73/2 33/74/2
f 36/75/1 39/76/1 35/77/1
f 40/78/6 37/79/6 39/80/6
f 38/81/4 33/82/4 37/83/4
f 39/84/3 33/85/3 35/86/3
f 36/87/5 38/88/5 40/89/5
f 42/90/2 43/91/2 41/92/2
f 43/93/1 48/94/1 47/95/1
f 48/96/6 45/97/6 47/98/6
f 46/99/4 41/100/4 45/101/4
f 47/102/3 41/103/3 43/104/3
f 44/105/5 46/106/5 48/107/5
f 50/108/3 51/109/3 49/110/3
f 52/111/6 55/112/6 51/113/6
f 56/110/5 53/114/5 55/115/5
f 54/116/2 49/117/2 53/118/2
f 55/119/4 49/120/4 51/121/4
f 52/122/1 54/123/1 56/124/1
f 58/125/3 59/126/3 57/127/3
f 60/128/6 63/129/6 59/130/6
f 64/131/5 61/132/5 63/133/5
f 62/134/2 57/135/2 61/136/2
f 63/137/4 57/138/4 59/139/4
f 60/140/1 62/141/1 64/142/1
f 66/143/3 67/144/3 65/145/3
f 68/146/6 71/147/6 67/148/6
f 72/149/5 69/150/5 71/151/5
f 70/152/2 65/153/2 69/154/2
f 71/155/4 65/156/4 67/157/4
f 68/158/1 70/159/1 72/160/1
f 74/161/3 75/162/3 73/163/3
f 76/164/6 79/165/6 75/166/6
f 80/167/5 77/168/5 79/169/5
f 78/170/2 73/171/2 77/172/2
f 79/173/4 73/174/4 75/175/4
f 76/176/1 78/177/1 80/178/1
f 82/179/3 83/180/3 81/181/3
f 84/182/6 87/183/6 83/184/6
f 88/185/5 85/186/5 87/187/5
f 86/188/2 81/189/2 85/190/2
f 87/191/4 81/192/4 83/193/4
f 84/194/1 86/195/1 88/196/1
f 90/197/3 91/198/3 89/199/3
f 92/200/6 95/201/6 91/202/6
f 96/203/5 93/204/5 95/205/5
f 94/206/2 89/207/2 93/208/2
f 95/209/4 89/210/4 91/211/4
f 92/212/1 94/213/1 96/214/1
f 5/1/1 7/215/1 3/2/1
f 3/4/2 7/216/2 8/5/2
f 7/7/3 5/217/3 6/8/3
f 2/10/4 4/15/4 8/11/4
f 1/13/5 3/218/5 4/14/5
f 5/16/6 1/219/6 2/17/6
f 10/19/2 12/220/2 11/20/2
f 11/22/1 12/221/1 16/23/1
f 16/25/6 14/222/6 13/26/6
f 14/28/4 10/223/4 9/29/4
f 15/31/3 13/224/3 9/32/3
f 12/34/5 10/225/5 14/35/5
f 18/37/2 20/226/2 19/38/2
f 19/40/1 20/227/1 24/41/1
f 24/43/6 22/228/6 21/44/6
f 22/46/4 18/229/4 17/47/4
f 23/49/3 21/230/3 17/50/3
f 20/52/5 18/31/5 22/53/5
f 26/55/2 28/231/2 27/56/2
f 27/58/1 28/232/1 32/59/1
f 32/61/6 30/233/6 29/62/6
f 30/64/4 26/234/4 25/65/4
f 31/67/3 29/235/3 25/68/3
f 28/70/5 26/236/5 30/69/5
f 34/72/2 36/237/2 35/73/2
f 36/75/1 40/238/1 39/76/1
f 40/78/6 38/239/6 37/79/6
f 38/81/4 34/240/4 33/82/4
f 39/84/3 37/241/3 33/85/3
f 36/87/5 34/242/5 38/88/5
f 42/90/2 44/243/2 43/91/2
f 43/93/1 44/244/1 48/94/1
f 48/96/6 46/245/6 45/97/6
f 46/99/4 42/246/4 41/100/4
f 47/102/3 45/81/3 41/103/3
f 44/105/5 42/247/5 46/106/5
f 50/108/3 52/248/3 51/109/3
f 52/111/6 56/249/6 55/112/6
f 56/110/5 54/109/5 53/114/5
f 54/116/2 50/250/2 49/117/2
f 55/119/4 53/251/4 49/120/4
f 52/122/1 50/252/1 54/123/1
f 58/125/3 60/168/3 59/126/3
f 60/128/6 64/253/6 63/129/6
f 64/131/5 62/161/5 61/132/5
f 62/134/2 58/254/2 57/135/2
f 63/137/4 61/255/4 57/138/4
f 60/140/1 58/84/1 62/141/1
f 66/143/3 68/200/3 67/144/3
f 68/146/6 72/256/6 71/147/6
f 72/149/5 70/257/5 69/150/5
f 70/152/2 66/258/2 65/153/2
f 71/155/4 69/259/4 65/156/4
f 68/158/1 66/260/1 70/159/1
f 74/161/3 76/186/3 75/162/3
f 76/164/6 80/261/6 79/165/6
f 80/167/5 78/108/5 77/168/5
f 78/170/2 74/262/2 73/171/2
f 79/173/4 77/263/4 73/174/4
f 76/176/1 74/264/1 78/177/1
f 82/179/3 84/144/3 83/180/3
f 84/182/6 88/265/6 87/183/6
f 88/185/5 86/266/5 85/186/5
f 86/188/2 82/267/2 81/189/2
f 87/191/4 85/268/4 81/192/4
f 84/194/1 82/269/1 86/195/1
f 90/197/3 92/270/3 91/198/3
f 92/200/6 96/271/6 95/201/6
f 96/203/5 94/272/5 93/204/5
f 94/206/2 90/273/2 89/207/2
f 95/209/4 93/274/4 89/210/4
f 92/212/1 90/209/1 94/213/1
