# Blender 4.4.0
# www.blender.org
mtllib pc.mtl
o Cube
v 1.000000 0.282492 -1.000000
v 1.000000 -0.001836 -1.000000
v 1.000000 0.282492 1.000000
v 1.000000 -0.001836 1.000000
v -1.000000 0.282492 -1.000000
v -1.000000 -0.001836 -1.000000
v -1.000000 0.282492 1.000000
v -1.000000 -0.001836 1.000000
v -0.760584 0.282493 0.738284
v -0.760584 1.294802 0.738284
v -0.760584 0.282493 -0.727696
v -0.760584 1.294802 -0.727696
v 0.774419 0.282493 0.738284
v 0.774419 1.294802 0.738284
v 0.774419 0.282493 -0.727696
v 0.774419 1.294802 -0.727696
vn -0.0000 1.0000 -0.0000
vn -0.0000 -0.0000 1.0000
vn -1.0000 -0.0000 -0.0000
vn -0.0000 -1.0000 -0.0000
vn 1.0000 -0.0000 -0.0000
vn -0.0000 -0.0000 -1.0000
vt 0.845164 0.211239
vt 0.633925 0.000000
vt 0.845164 0.000000
vt 0.633925 0.422478
vt 0.845164 0.211239
vt 0.845164 0.422478
vt 0.633925 0.633717
vt 0.845164 0.422478
vt 0.845164 0.633717
vt 0.211239 0.963325
vt 0.000000 0.752086
vt 0.211239 0.752086
vt 0.211239 0.963325
vt 0.422478 0.752086
vt 0.422478 0.963325
vt 0.422478 0.963325
vt 0.633717 0.752086
vt 0.633717 0.963325
vt 0.324253 0.000000
vt 0.479089 0.752086
vt 0.324253 0.752086
vt 0.000000 0.000000
vt 0.321445 0.752086
vt 0.000000 0.752086
vt 0.479089 0.000000
vt 0.633925 0.752086
vt 0.479089 0.752086
vt 0.838419 0.247107
vt 1.000546 0.999193
vt 0.838419 0.999193
vt 0.788553 0.914212
vt 0.633717 0.752086
vt 0.788553 0.752086
vt 1.000000 0.162126
vt 0.845164 0.000000
vt 1.000000 0.000000
vt 0.633925 0.211239
vt 0.633925 0.211239
vt 0.633925 0.422478
vt 0.000000 0.963325
vt 0.211239 0.752086
vt 0.422478 0.752086
vt 0.479089 0.000000
vt 0.319820 0.001626
vt 0.633925 0.000000
vt 1.000546 0.247107
vt 0.633717 0.914212
vt 0.845164 0.162126
s 0
usemtl Material
f 5/1/1 3/2/1 1/3/1
f 3/4/2 8/5/2 4/6/2
f 7/7/3 6/8/3 8/9/3
f 2/10/4 8/11/4 6/12/4
f 1/13/5 4/14/5 2/15/5
f 5/16/6 2/17/6 6/18/6
f 10/19/3 11/20/3 9/21/3
f 12/22/6 15/23/6 11/24/6
f 16/25/5 13/26/5 15/27/5
f 14/28/2 9/29/2 13/30/2
f 15/31/4 9/32/4 11/33/4
f 12/34/1 14/35/1 16/36/1
f 5/1/1 7/37/1 3/2/1
f 3/4/2 7/38/2 8/5/2
f 7/7/3 5/39/3 6/8/3
f 2/10/4 4/40/4 8/11/4
f 1/13/5 3/41/5 4/14/5
f 5/16/6 1/42/6 2/17/6
f 10/19/3 12/43/3 11/20/3
f 12/22/6 16/44/6 15/23/6
f 16/25/5 14/45/5 13/26/5
f 14/28/2 10/46/2 9/29/2
f 15/31/4 13/47/4 9/32/4
f 12/34/1 10/48/1 14/35/1
