# Blender 4.4.0
# www.blender.org
mtllib pepperoni.mtl
o Cylinder
v 0.000000 -0.100000 -1.000000
v 0.000000 0.100000 -1.000000
v 0.195090 -0.100000 -0.980785
v 0.195090 0.100000 -0.980785
v 0.382683 -0.100000 -0.923880
v 0.382683 0.100000 -0.923880
v 0.555570 -0.100000 -0.831470
v 0.555570 0.100000 -0.831470
v 0.707107 -0.100000 -0.707107
v 0.707107 0.100000 -0.707107
v 0.831470 -0.100000 -0.555570
v 0.831470 0.100000 -0.555570
v 0.923880 -0.100000 -0.382683
v 0.923880 0.100000 -0.382683
v 0.980785 -0.100000 -0.195090
v 0.980785 0.100000 -0.195090
v 1.000000 -0.100000 0.000000
v 1.000000 0.100000 0.000000
v 0.980785 -0.100000 0.195090
v 0.980785 0.100000 0.195090
v 0.923880 -0.100000 0.382683
v 0.923880 0.100000 0.382683
v 0.831470 -0.100000 0.555570
v 0.831470 0.100000 0.555570
v 0.707107 -0.100000 0.707107
v 0.707107 0.100000 0.707107
v 0.555570 -0.100000 0.831470
v 0.555570 0.100000 0.831470
v 0.382683 -0.100000 0.923880
v 0.382683 0.100000 0.923880
v 0.195090 -0.100000 0.980785
v 0.195090 0.100000 0.980785
v 0.000000 -0.100000 1.000000
v 0.000000 0.100000 1.000000
v -0.195090 -0.100000 0.980785
v -0.195090 0.100000 0.980785
v -0.382683 -0.100000 0.923880
v -0.382683 0.100000 0.923880
v -0.555570 -0.100000 0.831470
v -0.555570 0.100000 0.831470
v -0.707107 -0.100000 0.707107
v -0.707107 0.100000 0.707107
v -0.831470 -0.100000 0.555570
v -0.831470 0.100000 0.555570
v -0.923880 -0.100000 0.382683
v -0.923880 0.100000 0.382683
v -0.980785 -0.100000 0.195090
v -0.980785 0.100000 0.195090
v -1.000000 -0.100000 0.000000
v -1.000000 0.100000 0.000000
v -0.980785 -0.100000 -0.195090
v -0.980785 0.100000 -0.195090
v -0.923880 -0.100000 -0.382683
v -0.923880 0.100000 -0.382683
v -0.831470 -0.100000 -0.555570
v -0.831470 0.100000 -0.555570
v -0.707107 -0.100000 -0.707107
v -0.707107 0.100000 -0.707107
v -0.555570 -0.100000 -0.831470
v -0.555570 0.100000 -0.831470
v -0.382683 -0.100000 -0.923880
v -0.382683 0.100000 -0.923880
v -0.195090 -0.100000 -0.980785
v -0.195090 0.100000 -0.980785
vn -0.0000 -0.6857 -0.7279
vn -0.0000 0.6857 -0.7279
vn 0.1420 -0.6857 -0.7139
vn 0.1420 0.6857 -0.7139
vn 0.2785 -0.6857 -0.6725
vn 0.2785 0.6857 -0.6725
vn 0.4044 -0.6857 -0.6052
vn 0.4044 0.6857 -0.6052
vn 0.5147 -0.6857 -0.5147
vn 0.5147 0.6857 -0.5147
vn 0.6052 -0.6857 -0.4044
vn 0.6052 0.6857 -0.4044
vn 0.6725 -0.6857 -0.2785
vn 0.6725 0.6857 -0.2785
vn 0.7139 -0.6857 -0.1420
vn 0.7139 0.6857 -0.1420
vn 0.7279 -0.6857 -0.0000
vn 0.7279 0.6857 -0.0000
vn 0.7139 -0.6857 0.1420
vn 0.7139 0.6857 0.1420
vn 0.6725 -0.6857 0.2785
vn 0.6725 0.6857 0.2785
vn 0.6052 -0.6857 0.4044
vn 0.6052 0.6857 0.4044
vn 0.5147 -0.6857 0.5147
vn 0.5147 0.6857 0.5147
vn 0.4044 -0.6857 0.6052
vn 0.4044 0.6857 0.6052
vn 0.2785 -0.6857 0.6725
vn 0.2785 0.6857 0.6725
vn 0.1420 -0.6857 0.7139
vn 0.1420 0.6857 0.7139
vn -0.0000 -0.6857 0.7279
vn -0.0000 0.6857 0.7279
vn -0.1420 -0.6857 0.7139
vn -0.1420 0.6857 0.7139
vn -0.2785 -0.6857 0.6725
vn -0.2785 0.6857 0.6725
vn -0.4044 -0.6857 0.6052
vn -0.4044 0.6857 0.6052
vn -0.5147 -0.6857 0.5147
vn -0.5147 0.6857 0.5147
vn -0.6052 -0.6857 0.4044
vn -0.6052 0.6857 0.4044
vn -0.6725 -0.6857 0.2785
vn -0.6725 0.6857 0.2785
vn -0.7139 -0.6857 0.1420
vn -0.7139 0.6857 0.1420
vn -0.7279 -0.6857 -0.0000
vn -0.7279 0.6857 -0.0000
vn -0.7139 -0.6857 -0.1420
vn -0.7139 0.6857 -0.1420
vn -0.6725 -0.6857 -0.2785
vn -0.6725 0.6857 -0.2785
vn -0.6052 -0.6857 -0.4044
vn -0.6052 0.6857 -0.4044
vn -0.5147 -0.6857 -0.5147
vn -0.5147 0.6857 -0.5147
vn -0.4044 -0.6857 -0.6052
vn -0.4044 0.6857 -0.6052
vn -0.2785 -0.6857 -0.6725
vn -0.2785 0.6857 -0.6725
vn -0.1420 -0.6857 -0.7139
vn -0.1420 0.6857 -0.7139
vt 0.031958 0.375020
vt 0.000081 0.375020
vt 0.000081 0.343775
vt 0.031958 0.343775
vt 0.000081 0.312530
vt 0.031958 0.312530
vt 0.000081 0.281286
vt 0.031958 0.281286
vt 0.000081 0.250041
vt 0.031958 0.250041
vt 0.000081 0.218796
vt 0.031958 0.218796
vt 0.000081 0.187551
vt 0.031958 0.187551
vt 0.000081 0.156306
vt 0.031958 0.156306
vt 0.000081 0.125061
vt 0.031958 0.125061
vt 0.000081 0.093816
vt 0.031958 0.093816
vt 0.000081 0.062571
vt 0.031958 0.062571
vt 0.000081 0.031326
vt 0.031958 0.031326
vt 0.000081 0.000081
vt 0.031958 0.000081
vt 0.031958 0.999919
vt 0.000081 0.999919
vt 0.000081 0.968674
vt 0.031958 0.968674
vt 0.000081 0.937429
vt 0.031958 0.937429
vt 0.000081 0.906184
vt 0.031958 0.906184
vt 0.000081 0.874939
vt 0.031958 0.874939
vt 0.000081 0.843694
vt 0.031958 0.843694
vt 0.000081 0.812449
vt 0.031958 0.812449
vt 0.000081 0.781204
vt 0.031958 0.781204
vt 0.000081 0.749959
vt 0.031958 0.749959
vt 0.000081 0.718714
vt 0.031958 0.718714
vt 0.000081 0.687470
vt 0.031958 0.687470
vt 0.000081 0.656225
vt 0.031958 0.656225
vt 0.000081 0.624980
vt 0.031958 0.624980
vt 0.000081 0.593735
vt 0.031958 0.593735
vt 0.000081 0.562490
vt 0.031958 0.562490
vt 0.000081 0.531245
vt 0.031958 0.531245
vt 0.000081 0.500000
vt 0.031958 0.500000
vt 0.000081 0.468755
vt 0.031958 0.468755
vt 0.000081 0.437510
vt 0.031958 0.437510
vt 0.032121 0.143076
vt 0.038217 0.112432
vt 0.050174 0.083565
vt 0.067532 0.057586
vt 0.089626 0.035492
vt 0.115605 0.018134
vt 0.144472 0.006177
vt 0.175116 0.000081
vt 0.206361 0.000081
vt 0.237006 0.006177
vt 0.265872 0.018134
vt 0.291851 0.035493
vt 0.313945 0.057586
vt 0.331304 0.083565
vt 0.343260 0.112432
vt 0.349356 0.143076
vt 0.349356 0.174321
vt 0.343260 0.204966
vt 0.331303 0.233832
vt 0.313945 0.259812
vt 0.291851 0.281905
vt 0.265872 0.299264
vt 0.237005 0.311221
vt 0.206361 0.317316
vt 0.175116 0.317316
vt 0.144471 0.311221
vt 0.115605 0.299264
vt 0.089626 0.281905
vt 0.067532 0.259811
vt 0.050173 0.233832
vt 0.038217 0.204966
vt 0.032121 0.174321
vt 0.000081 0.406265
vt 0.031958 0.406265
vt 0.032121 0.460474
vt 0.038217 0.429829
vt 0.050173 0.400963
vt 0.067532 0.374984
vt 0.089626 0.352890
vt 0.115605 0.335531
vt 0.144471 0.323575
vt 0.175116 0.317479
vt 0.206361 0.317479
vt 0.237005 0.323574
vt 0.265872 0.335531
vt 0.291851 0.352890
vt 0.313945 0.374984
vt 0.331303 0.400963
vt 0.343260 0.429829
vt 0.349356 0.460474
vt 0.349356 0.491719
vt 0.343260 0.522363
vt 0.331303 0.551230
vt 0.313945 0.577209
vt 0.291851 0.599303
vt 0.265872 0.616661
vt 0.237006 0.628618
vt 0.206361 0.634714
vt 0.175116 0.634714
vt 0.144471 0.628618
vt 0.115605 0.616661
vt 0.089626 0.599303
vt 0.067532 0.577209
vt 0.050173 0.551230
vt 0.038217 0.522363
vt 0.032121 0.491719
s 1
f 1/1/1 2/2/2 4/3/4 3/4/3
f 3/4/3 4/3/4 6/5/6 5/6/5
f 5/6/5 6/5/6 8/7/8 7/8/7
f 7/8/7 8/7/8 10/9/10 9/10/9
f 9/10/9 10/9/10 12/11/12 11/12/11
f 11/12/11 12/11/12 14/13/14 13/14/13
f 13/14/13 14/13/14 16/15/16 15/16/15
f 15/16/15 16/15/16 18/17/18 17/18/17
f 17/18/17 18/17/18 20/19/20 19/20/19
f 19/20/19 20/19/20 22/21/22 21/22/21
f 21/22/21 22/21/22 24/23/24 23/24/23
f 23/24/23 24/23/24 26/25/26 25/26/25
f 25/27/25 26/28/26 28/29/28 27/30/27
f 27/30/27 28/29/28 30/31/30 29/32/29
f 29/32/29 30/31/30 32/33/32 31/34/31
f 31/34/31 32/33/32 34/35/34 33/36/33
f 33/36/33 34/35/34 36/37/36 35/38/35
f 35/38/35 36/37/36 38/39/38 37/40/37
f 37/40/37 38/39/38 40/41/40 39/42/39
f 39/42/39 40/41/40 42/43/42 41/44/41
f 41/44/41 42/43/42 44/45/44 43/46/43
f 43/46/43 44/45/44 46/47/46 45/48/45
f 45/48/45 46/47/46 48/49/48 47/50/47
f 47/50/47 48/49/48 50/51/50 49/52/49
f 49/52/49 50/51/50 52/53/52 51/54/51
f 51/54/51 52/53/52 54/55/54 53/56/53
f 53/56/53 54/55/54 56/57/56 55/58/55
f 55/58/55 56/57/56 58/59/58 57/60/57
f 57/60/57 58/59/58 60/61/60 59/62/59
f 59/62/59 60/61/60 62/63/62 61/64/61
f 4/65/4 2/66/2 64/67/64 62/68/62 60/69/60 58/70/58 56/71/56 54/72/54 52/73/52 50/74/50 48/75/48 46/76/46 44/77/44 42/78/42 40/79/40 38/80/38 36/81/36 34/82/34 32/83/32 30/84/30 28/85/28 26/86/26 24/87/24 22/88/22 20/89/20 18/90/18 16/91/16 14/92/14 12/93/12 10/94/10 8/95/8 6/96/6
f 61/64/61 62/63/62 64/97/64 63/98/63
f 63/98/63 64/97/64 2/2/2 1/1/1
f 1/99/1 3/100/3 5/101/5 7/102/7 9/103/9 11/104/11 13/105/13 15/106/15 17/107/17 19/108/19 21/109/21 23/110/23 25/111/25 27/112/27 29/113/29 31/114/31 33/115/33 35/116/35 37/117/37 39/118/39 41/119/41 43/120/43 45/121/45 47/122/47 49/123/49 51/124/51 53/125/53 55/126/55 57/127/57 59/128/59 61/129/61 63/130/63
