# Blender 4.4.0
# www.blender.org
mtllib pizza.mtl
o Cylinder
v 0.000000 -0.037666 -1.000000
v 0.000000 0.037666 -1.000000
v 0.195090 -0.037666 -0.980785
v 0.195090 0.037666 -0.980785
v 0.382683 -0.037666 -0.923880
v 0.382683 0.037666 -0.923880
v 0.555570 -0.037666 -0.831470
v 0.555570 0.037666 -0.831470
v 0.707107 -0.037666 -0.707107
v 0.707107 0.037666 -0.707107
v 0.831470 -0.037666 -0.555570
v 0.831470 0.037666 -0.555570
v 0.923880 -0.037666 -0.382683
v 0.923880 0.037666 -0.382683
v 0.980785 -0.037666 -0.195090
v 0.980785 0.037666 -0.195090
v 1.000000 -0.037666 0.000000
v 1.000000 0.037666 0.000000
v 0.980785 -0.037666 0.195090
v 0.980785 0.037666 0.195090
v 0.923880 -0.037666 0.382683
v 0.923880 0.037666 0.382683
v 0.831470 -0.037666 0.555570
v 0.831470 0.037666 0.555570
v 0.707107 -0.037666 0.707107
v 0.707107 0.037666 0.707107
v 0.555570 -0.037666 0.831470
v 0.555570 0.037666 0.831470
v 0.382683 -0.037666 0.923880
v 0.382683 0.037666 0.923880
v 0.195090 -0.037666 0.980785
v 0.195090 0.037666 0.980785
v 0.000000 -0.037666 1.000000
v 0.000000 0.037666 1.000000
v -0.195090 -0.037666 0.980785
v -0.195090 0.037666 0.980785
v -0.382683 -0.037666 0.923880
v -0.382683 0.037666 0.923880
v -0.555570 -0.037666 0.831470
v -0.555570 0.037666 0.831470
v -0.707107 -0.037666 0.707107
v -0.707107 0.037666 0.707107
v -0.831470 -0.037666 0.555570
v -0.831470 0.037666 0.555570
v -0.923880 -0.037666 0.382683
v -0.923880 0.037666 0.382683
v -0.980785 -0.037666 0.195090
v -0.980785 0.037666 0.195090
v -1.000000 -0.037666 0.000000
v -1.000000 0.037666 0.000000
v -0.980785 -0.037666 -0.195090
v -0.980785 0.037666 -0.195090
v -0.923880 -0.037666 -0.382683
v -0.923880 0.037666 -0.382683
v -0.831470 -0.037666 -0.555570
v -0.831470 0.037666 -0.555570
v -0.707107 -0.037666 -0.707107
v -0.707107 0.037666 -0.707107
v -0.555570 -0.037666 -0.831470
v -0.555570 0.037666 -0.831470
v -0.382683 -0.037666 -0.923880
v -0.382683 0.037666 -0.923880
v -0.195090 -0.037666 -0.980785
v -0.195090 0.037666 -0.980785
vn 0.0980 -0.0000 -0.9952
vn 0.2903 -0.0000 -0.9569
vn 0.4714 -0.0000 -0.8819
vn 0.6344 -0.0000 -0.7730
vn 0.7730 -0.0000 -0.6344
vn 0.8819 -0.0000 -0.4714
vn 0.9569 -0.0000 -0.2903
vn 0.9952 -0.0000 -0.0980
vn 0.9952 -0.0000 0.0980
vn 0.9569 -0.0000 0.2903
vn 0.8819 -0.0000 0.4714
vn 0.7730 -0.0000 0.6344
vn 0.6344 -0.0000 0.7730
vn 0.4714 -0.0000 0.8819
vn 0.2903 -0.0000 0.9569
vn 0.0980 -0.0000 0.9952
vn -0.0980 -0.0000 0.9952
vn -0.2903 -0.0000 0.9569
vn -0.4714 -0.0000 0.8819
vn -0.6344 -0.0000 0.7730
vn -0.7730 -0.0000 0.6344
vn -0.8819 -0.0000 0.4714
vn -0.9569 -0.0000 0.2903
vn -0.9952 -0.0000 0.0980
vn -0.9952 -0.0000 -0.0980
vn -0.9569 -0.0000 -0.2903
vn -0.8819 -0.0000 -0.4714
vn -0.7730 -0.0000 -0.6344
vn -0.6344 -0.0000 -0.7730
vn -0.4714 -0.0000 -0.8819
vn -0.0000 1.0000 -0.0000
vn -0.2903 -0.0000 -0.9569
vn -0.0980 -0.0000 -0.9952
vn -0.0000 -1.0000 -0.0000
vt 0.000074 0.312528
vt 0.012081 0.281283
vt 0.012081 0.312528
vt 0.000074 0.281283
vt 0.012081 0.250037
vt 0.000074 0.250037
vt 0.012081 0.218792
vt 0.000074 0.218792
vt 0.012081 0.187547
vt 0.000074 0.187547
vt 0.012081 0.156301
vt 0.000074 0.156301
vt 0.012081 0.125056
vt 0.000074 0.125056
vt 0.012081 0.093810
vt 0.000074 0.093810
vt 0.012081 0.062565
vt 0.000074 0.062565
vt 0.012081 0.031320
vt 0.000074 0.031320
vt 0.012081 0.000074
vt 0.000074 0.999926
vt 0.012082 0.968680
vt 0.012082 0.999926
vt 0.000074 0.968680
vt 0.012082 0.937435
vt 0.000074 0.937435
vt 0.012082 0.906189
vt 0.000074 0.906189
vt 0.012082 0.874944
vt 0.000074 0.874944
vt 0.012082 0.843699
vt 0.000074 0.843699
vt 0.012082 0.812453
vt 0.000074 0.812453
vt 0.012082 0.781208
vt 0.000074 0.781208
vt 0.012082 0.749963
vt 0.000074 0.749963
vt 0.012082 0.718717
vt 0.000074 0.718717
vt 0.012081 0.687472
vt 0.000074 0.687472
vt 0.012081 0.656227
vt 0.000074 0.656227
vt 0.012081 0.624981
vt 0.000074 0.624981
vt 0.012081 0.593736
vt 0.000074 0.593736
vt 0.012081 0.562491
vt 0.000074 0.562491
vt 0.012081 0.531245
vt 0.000074 0.531245
vt 0.012081 0.500000
vt 0.000074 0.500000
vt 0.012081 0.468755
vt 0.000074 0.468755
vt 0.012081 0.437509
vt 0.000074 0.437509
vt 0.012081 0.406264
vt 0.000074 0.406264
vt 0.012081 0.375019
vt 0.186473 0.000074
vt 0.329470 0.174317
vt 0.155227 0.317314
vt 0.000074 0.375019
vt 0.012081 0.343773
vt 0.000074 0.343773
vt 0.271964 0.352874
vt 0.294058 0.577196
vt 0.069736 0.599290
vt 0.000074 0.000074
vt 0.124582 0.311218
vt 0.095715 0.299261
vt 0.069736 0.281902
vt 0.047642 0.259808
vt 0.030283 0.233829
vt 0.018326 0.204962
vt 0.012230 0.174317
vt 0.012230 0.143071
vt 0.018326 0.112426
vt 0.030283 0.083559
vt 0.047642 0.057580
vt 0.069736 0.035486
vt 0.095715 0.018127
vt 0.124582 0.006170
vt 0.155227 0.000074
vt 0.217118 0.006170
vt 0.245985 0.018127
vt 0.271964 0.035486
vt 0.294058 0.057580
vt 0.311417 0.083560
vt 0.323374 0.112426
vt 0.329470 0.143071
vt 0.323374 0.204962
vt 0.311417 0.233829
vt 0.294058 0.259808
vt 0.271964 0.281902
vt 0.245985 0.299261
vt 0.217118 0.311218
vt 0.186473 0.317314
vt 0.047642 0.577196
vt 0.030283 0.551217
vt 0.018326 0.522350
vt 0.012230 0.491705
vt 0.012230 0.460460
vt 0.018326 0.429815
vt 0.030283 0.400948
vt 0.047642 0.374968
vt 0.069736 0.352874
vt 0.095715 0.335515
vt 0.124582 0.323558
vt 0.155227 0.317463
vt 0.186473 0.317463
vt 0.217118 0.323558
vt 0.245985 0.335515
vt 0.294058 0.374968
vt 0.311417 0.400948
vt 0.323374 0.429815
vt 0.329470 0.460460
vt 0.329470 0.491705
vt 0.323374 0.522350
vt 0.311417 0.551217
vt 0.271964 0.599290
vt 0.245985 0.616649
vt 0.217118 0.628606
vt 0.186473 0.634702
vt 0.155227 0.634702
vt 0.124582 0.628606
vt 0.095715 0.616649
s 0
f 2/1/1 3/2/1 1/3/1
f 4/4/2 5/5/2 3/2/2
f 6/6/3 7/7/3 5/5/3
f 8/8/4 9/9/4 7/7/4
f 10/10/5 11/11/5 9/9/5
f 12/12/6 13/13/6 11/11/6
f 14/14/7 15/15/7 13/13/7
f 16/16/8 17/17/8 15/15/8
f 18/18/9 19/19/9 17/17/9
f 20/20/10 21/21/10 19/19/10
f 22/22/11 23/23/11 21/24/11
f 24/25/12 25/26/12 23/23/12
f 26/27/13 27/28/13 25/26/13
f 28/29/14 29/30/14 27/28/14
f 30/31/15 31/32/15 29/30/15
f 32/33/16 33/34/16 31/32/16
f 34/35/17 35/36/17 33/34/17
f 36/37/18 37/38/18 35/36/18
f 38/39/19 39/40/19 37/38/19
f 40/41/20 41/42/20 39/40/20
f 42/43/21 43/44/21 41/42/21
f 44/45/22 45/46/22 43/44/22
f 46/47/23 47/48/23 45/46/23
f 48/49/24 49/50/24 47/48/24
f 50/51/25 51/52/25 49/50/25
f 52/53/26 53/54/26 51/52/26
f 54/55/27 55/56/27 53/54/27
f 56/57/28 57/58/28 55/56/28
f 58/59/29 59/60/29 57/58/29
f 60/61/30 61/62/30 59/60/30
f 38/63/31 22/64/31 6/65/31
f 62/66/32 63/67/32 61/62/32
f 64/68/33 1/3/33 63/67/33
f 31/69/34 47/70/34 63/71/34
f 2/1/1 4/4/1 3/2/1
f 4/4/2 6/6/2 5/5/2
f 6/6/3 8/8/3 7/7/3
f 8/8/4 10/10/4 9/9/4
f 10/10/5 12/12/5 11/11/5
f 12/12/6 14/14/6 13/13/6
f 14/14/7 16/16/7 15/15/7
f 16/16/8 18/18/8 17/17/8
f 18/18/9 20/20/9 19/19/9
f 20/20/10 22/72/10 21/21/10
f 22/22/11 24/25/11 23/23/11
f 24/25/12 26/27/12 25/26/12
f 26/27/13 28/29/13 27/28/13
f 28/29/14 30/31/14 29/30/14
f 30/31/15 32/33/15 31/32/15
f 32/33/16 34/35/16 33/34/16
f 34/35/17 36/37/17 35/36/17
f 36/37/18 38/39/18 37/38/18
f 38/39/19 40/41/19 39/40/19
f 40/41/20 42/43/20 41/42/20
f 42/43/21 44/45/21 43/44/21
f 44/45/22 46/47/22 45/46/22
f 46/47/23 48/49/23 47/48/23
f 48/49/24 50/51/24 49/50/24
f 50/51/25 52/53/25 51/52/25
f 52/53/26 54/55/26 53/54/26
f 54/55/27 56/57/27 55/56/27
f 56/57/28 58/59/28 57/58/28
f 58/59/29 60/61/29 59/60/29
f 60/61/30 62/66/30 61/62/30
f 6/65/31 4/73/31 2/74/31
f 2/74/31 64/75/31 62/76/31
f 62/76/31 60/77/31 58/78/31
f 58/78/31 56/79/31 54/80/31
f 54/80/31 52/81/31 50/82/31
f 50/82/31 48/83/31 46/84/31
f 46/84/31 44/85/31 42/86/31
f 42/86/31 40/87/31 38/63/31
f 38/63/31 36/88/31 34/89/31
f 34/89/31 32/90/31 30/91/31
f 30/91/31 28/92/31 26/93/31
f 26/93/31 24/94/31 22/64/31
f 22/64/31 20/95/31 18/96/31
f 18/96/31 16/97/31 14/98/31
f 14/98/31 12/99/31 10/100/31
f 10/100/31 8/101/31 6/65/31
f 6/65/31 2/74/31 62/76/31
f 62/76/31 58/78/31 54/80/31
f 54/80/31 50/82/31 46/84/31
f 46/84/31 42/86/31 38/63/31
f 38/63/31 34/89/31 30/91/31
f 30/91/31 26/93/31 22/64/31
f 22/64/31 18/96/31 14/98/31
f 14/98/31 10/100/31 6/65/31
f 6/65/31 62/76/31 54/80/31
f 54/80/31 46/84/31 38/63/31
f 38/63/31 30/91/31 22/64/31
f 22/64/31 14/98/31 6/65/31
f 6/65/31 54/80/31 38/63/31
f 62/66/32 64/68/32 63/67/32
f 64/68/33 2/1/33 1/3/33
f 63/71/34 1/102/34 3/103/34
f 3/103/34 5/104/34 7/105/34
f 7/105/34 9/106/34 11/107/34
f 11/107/34 13/108/34 15/109/34
f 15/109/34 17/110/34 19/111/34
f 19/111/34 21/112/34 23/113/34
f 23/113/34 25/114/34 27/115/34
f 27/115/34 29/116/34 31/69/34
f 31/69/34 33/117/34 35/118/34
f 35/118/34 37/119/34 39/120/34
f 39/120/34 41/121/34 43/122/34
f 43/122/34 45/123/34 47/70/34
f 47/70/34 49/124/34 51/125/34
f 51/125/34 53/126/34 55/127/34
f 55/127/34 57/128/34 59/129/34
f 59/129/34 61/130/34 63/71/34
f 63/71/34 3/103/34 7/105/34
f 7/105/34 11/107/34 15/109/34
f 15/109/34 19/111/34 23/113/34
f 23/113/34 27/115/34 31/69/34
f 31/69/34 35/118/34 39/120/34
f 39/120/34 43/122/34 47/70/34
f 47/70/34 51/125/34 55/127/34
f 55/127/34 59/129/34 63/71/34
f 63/71/34 7/105/34 15/109/34
f 15/109/34 23/113/34 31/69/34
f 31/69/34 39/120/34 47/70/34
f 47/70/34 55/127/34 63/71/34
f 63/71/34 15/109/34 31/69/34
