# Blender 4.4.0
# www.blender.org
mtllib sodaCup.mtl
o SodaCup
v 0.000000 0.000000 -0.600000
v 0.000000 2.000000 -1.000000
v 0.117054 0.000000 -0.588471
v 0.195090 2.000000 -0.980785
v 0.229610 0.000000 -0.554328
v 0.382683 2.000000 -0.923880
v 0.333342 0.000000 -0.498882
v 0.555570 2.000000 -0.831470
v 0.424264 0.000000 -0.424264
v 0.707107 2.000000 -0.707107
v 0.498882 0.000000 -0.333342
v 0.831470 2.000000 -0.555570
v 0.554328 0.000000 -0.229610
v 0.923880 2.000000 -0.382683
v 0.588471 0.000000 -0.117054
v 0.980785 2.000000 -0.195090
v 0.600000 0.000000 0.000000
v 1.000000 2.000000 0.000000
v 0.588471 0.000000 0.117054
v 0.980785 2.000000 0.195090
v 0.554328 0.000000 0.229610
v 0.923880 2.000000 0.382683
v 0.498882 0.000000 0.333342
v 0.831470 2.000000 0.555570
v 0.424264 0.000000 0.424264
v 0.707107 2.000000 0.707107
v 0.333342 0.000000 0.498882
v 0.555570 2.000000 0.831470
v 0.229610 0.000000 0.554328
v 0.382683 2.000000 0.923880
v 0.117054 0.000000 0.588471
v 0.195090 2.000000 0.980785
v 0.000000 0.000000 0.600000
v 0.000000 2.000000 1.000000
v -0.117054 0.000000 0.588471
v -0.195090 2.000000 0.980785
v -0.229610 0.000000 0.554328
v -0.382683 2.000000 0.923880
v -0.333342 0.000000 0.498882
v -0.555570 2.000000 0.831470
v -0.424264 0.000000 0.424264
v -0.707107 2.000000 0.707107
v -0.498882 0.000000 0.333342
v -0.831470 2.000000 0.555570
v -0.554328 0.000000 0.229610
v -0.923880 2.000000 0.382683
v -0.588471 0.000000 0.117054
v -0.980785 2.000000 0.195090
v -0.600000 0.000000 0.000000
v -1.000000 2.000000 0.000000
v -0.588471 0.000000 -0.117054
v -0.980785 2.000000 -0.195090
v -0.554328 0.000000 -0.229610
v -0.923880 2.000000 -0.382683
v -0.498882 0.000000 -0.333342
v -0.831470 2.000000 -0.555570
v -0.424264 0.000000 -0.424264
v -0.707107 2.000000 -0.707107
v -0.333342 0.000000 -0.498882
v -0.555570 2.000000 -0.831470
v -0.229610 0.000000 -0.554328
v -0.382683 2.000000 -0.923880
v -0.117054 0.000000 -0.588471
v -0.195090 2.000000 -0.980785
v 0.000000 2.000000 -1.050000
v 0.000000 2.100000 -1.050000
v 0.204845 2.000000 -1.029824
v 0.204845 2.100000 -1.029824
v 0.401818 2.000000 -0.970073
v 0.401818 2.100000 -0.970073
v 0.583349 2.000000 -0.873043
v 0.583349 2.100000 -0.873043
v 0.742462 2.000000 -0.742462
v 0.742462 2.100000 -0.742462
v 0.873043 2.000000 -0.583349
v 0.873043 2.100000 -0.583349
v 0.970073 2.000000 -0.401818
v 0.970073 2.100000 -0.401818
v 1.029824 2.000000 -0.204845
v 1.029824 2.100000 -0.204845
v 1.050000 2.000000 0.000000
v 1.050000 2.100000 0.000000
v 1.029824 2.000000 0.204845
v 1.029824 2.100000 0.204845
v 0.970073 2.000000 0.401818
v 0.970073 2.100000 0.401818
v 0.873043 2.000000 0.583349
v 0.873043 2.100000 0.583349
v 0.742462 2.000000 0.742462
v 0.742462 2.100000 0.742462
v 0.583349 2.000000 0.873043
v 0.583349 2.100000 0.873043
v 0.401818 2.000000 0.970073
v 0.401818 2.100000 0.970073
v 0.204845 2.000000 1.029824
v 0.204845 2.100000 1.029824
v 0.000000 2.000000 1.050000
v 0.000000 2.100000 1.050000
v -0.204845 2.000000 1.029824
v -0.204845 2.100000 1.029824
v -0.401818 2.000000 0.970073
v -0.401818 2.100000 0.970073
v -0.583349 2.000000 0.873043
v -0.583349 2.100000 0.873043
v -0.742462 2.000000 0.742462
v -0.742462 2.100000 0.742462
v -0.873043 2.000000 0.583349
v -0.873043 2.100000 0.583349
v -0.970073 2.000000 0.401818
v -0.970073 2.100000 0.401818
v -1.029824 2.000000 0.204845
v -1.029824 2.100000 0.204845
v -1.050000 2.000000 0.000000
v -1.050000 2.100000 0.000000
v -1.029824 2.000000 -0.204845
v -1.029824 2.100000 -0.204845
v -0.970073 2.000000 -0.401818
v -0.970073 2.100000 -0.401818
v -0.873043 2.000000 -0.583349
v -0.873043 2.100000 -0.583349
v -0.742462 2.000000 -0.742462
v -0.742462 2.100000 -0.742462
v -0.583349 2.000000 -0.873043
v -0.583349 2.100000 -0.873043
v -0.401818 2.000000 -0.970073
v -0.401818 2.100000 -0.970073
v -0.204845 2.000000 -1.029824
v -0.204845 2.100000 -1.029824
v 0.200000 2.039800 -0.296676
v 0.200000 3.999933 0.100663
v 0.238268 2.038288 -0.289216
v 0.238268 3.998421 0.108123
v 0.270711 2.033981 -0.267971
v 0.270711 3.994115 0.129368
v 0.292388 2.027536 -0.236175
v 0.292388 3.987669 0.161164
v 0.300000 2.019933 -0.198669
v 0.300000 3.980067 0.198669
v 0.292388 2.012331 -0.161164
v 0.292388 3.972464 0.236175
v 0.270711 2.005885 -0.129368
v 0.270711 3.966019 0.267971
v 0.238268 2.001579 -0.108123
v 0.238268 3.961712 0.289216
v 0.200000 2.000067 -0.100663
v 0.200000 3.960200 0.296676
v 0.161732 2.001579 -0.108123
v 0.161732 3.961712 0.289216
v 0.129289 2.005885 -0.129368
v 0.129289 3.966019 0.267971
v 0.107612 2.012331 -0.161164
v 0.107612 3.972464 0.236175
v 0.100000 2.019933 -0.198669
v 0.100000 3.980067 0.198669
v 0.107612 2.027536 -0.236175
v 0.107612 3.987669 0.161164
v 0.129289 2.033981 -0.267971
v 0.129289 3.994115 0.129368
v 0.161732 2.038288 -0.289216
v 0.161732 3.998421 0.108123
vn -0.0000 -0.7543 -0.6565
vn -0.0000 0.6113 -0.7914
vn 0.1281 -0.7543 -0.6439
vn 0.1544 0.6113 -0.7762
vn 0.2512 -0.7543 -0.6066
vn 0.3029 0.6113 -0.7312
vn 0.3647 -0.7543 -0.5459
vn 0.4397 0.6113 -0.6580
vn 0.4642 -0.7543 -0.4642
vn 0.5596 0.6113 -0.5596
vn 0.5459 -0.7543 -0.3647
vn 0.6580 0.6113 -0.4397
vn 0.6066 -0.7543 -0.2512
vn 0.7312 0.6113 -0.3029
vn 0.6439 -0.7543 -0.1281
vn 0.7762 0.6113 -0.1544
vn 0.6565 -0.7543 -0.0000
vn 0.7914 0.6113 -0.0000
vn 0.6439 -0.7543 0.1281
vn 0.7762 0.6113 0.1544
vn 0.6066 -0.7543 0.2512
vn 0.7312 0.6113 0.3029
vn 0.5459 -0.7543 0.3647
vn 0.6580 0.6113 0.4397
vn 0.4642 -0.7543 0.4642
vn 0.5596 0.6113 0.5596
vn 0.3647 -0.7543 0.5459
vn 0.4397 0.6113 0.6580
vn 0.2512 -0.7543 0.6066
vn 0.3029 0.6113 0.7312
vn 0.1281 -0.7543 0.6439
vn 0.1544 0.6113 0.7762
vn -0.0000 -0.7543 0.6565
vn -0.0000 0.6113 0.7914
vn -0.1281 -0.7543 0.6439
vn -0.1544 0.6113 0.7762
vn -0.2512 -0.7543 0.6066
vn -0.3029 0.6113 0.7312
vn -0.3647 -0.7543 0.5459
vn -0.4397 0.6113 0.6580
vn -0.4642 -0.7543 0.4642
vn -0.5596 0.6113 0.5596
vn -0.5459 -0.7543 0.3647
vn -0.6580 0.6113 0.4397
vn -0.6066 -0.7543 0.2512
vn -0.7312 0.6113 0.3029
vn -0.6439 -0.7543 0.1281
vn -0.7762 0.6113 0.1544
vn -0.6565 -0.7543 -0.0000
vn -0.7914 0.6113 -0.0000
vn -0.6439 -0.7543 -0.1281
vn -0.7762 0.6113 -0.1544
vn -0.6066 -0.7543 -0.2512
vn -0.7312 0.6113 -0.3029
vn -0.5459 -0.7543 -0.3647
vn -0.6580 0.6113 -0.4397
vn -0.4642 -0.7543 -0.4642
vn -0.5596 0.6113 -0.5596
vn -0.3647 -0.7543 -0.5459
vn -0.4397 0.6113 -0.6580
vn -0.2512 -0.7543 -0.6066
vn -0.3029 0.6113 -0.7312
vn -0.1281 -0.7543 -0.6439
vn -0.1544 0.6113 -0.7762
vn -0.0000 -0.6857 -0.7279
vn -0.0000 0.6857 -0.7279
vn 0.1420 -0.6857 -0.7139
vn 0.1420 0.6857 -0.7139
vn 0.2785 -0.6857 -0.6725
vn 0.2785 0.6857 -0.6725
vn 0.4044 -0.6857 -0.6052
vn 0.4044 0.6857 -0.6052
vn 0.5147 -0.6857 -0.5147
vn 0.5147 0.6857 -0.5147
vn 0.6052 -0.6857 -0.4044
vn 0.6052 0.6857 -0.4044
vn 0.6725 -0.6857 -0.2785
vn 0.6725 0.6857 -0.2785
vn 0.7139 -0.6857 -0.1420
vn 0.7139 0.6857 -0.1420
vn 0.7279 -0.6857 -0.0000
vn 0.7279 0.6857 -0.0000
vn 0.7139 -0.6857 0.1420
vn 0.7139 0.6857 0.1420
vn 0.6725 -0.6857 0.2785
vn 0.6725 0.6857 0.2785
vn 0.6052 -0.6857 0.4044
vn 0.6052 0.6857 0.4044
vn 0.5147 -0.6857 0.5147
vn 0.5147 0.6857 0.5147
vn 0.4044 -0.6857 0.6052
vn 0.4044 0.6857 0.6052
vn 0.2785 -0.6857 0.6725
vn 0.2785 0.6857 0.6725
vn 0.1420 -0.6857 0.7139
vn 0.1420 0.6857 0.7139
vn -0.0000 -0.6857 0.7279
vn -0.0000 0.6857 0.7279
vn -0.1420 -0.6857 0.7139
vn -0.1420 0.6857 0.7139
vn -0.2785 -0.6857 0.6725
vn -0.2785 0.6857 0.6725
vn -0.4044 -0.6857 0.6052
vn -0.4044 0.6857 0.6052
vn -0.5147 -0.6857 0.5147
vn -0.5147 0.6857 0.5147
vn -0.6052 -0.6857 0.4044
vn -0.6052 0.6857 0.4044
vn -0.6725 -0.6857 0.2785
vn -0.6725 0.6857 0.2785
vn -0.7139 -0.6857 0.1420
vn -0.7139 0.6857 0.1420
vn -0.7279 -0.6857 -0.0000
vn -0.7279 0.6857 -0.0000
vn -0.7139 -0.6857 -0.1420
vn -0.7139 0.6857 -0.1420
vn -0.6725 -0.6857 -0.2785
vn -0.6725 0.6857 -0.2785
vn -0.6052 -0.6857 -0.4044
vn -0.6052 0.6857 -0.4044
vn -0.5147 -0.6857 -0.5147
vn -0.5147 0.6857 -0.5147
vn -0.4044 -0.6857 -0.6052
vn -0.4044 0.6857 -0.6052
vn -0.2785 -0.6857 -0.6725
vn -0.2785 0.6857 -0.6725
vn -0.1420 -0.6857 -0.7139
vn -0.1420 0.6857 -0.7139
vn -0.0000 -0.5042 -0.8636
vn -0.0000 0.8007 -0.5991
vn 0.2856 -0.5155 -0.8079
vn 0.2856 0.7894 -0.5434
vn 0.5276 -0.5476 -0.6494
vn 0.5276 0.7573 -0.3849
vn 0.6894 -0.5957 -0.4121
vn 0.6894 0.7092 -0.1476
vn 0.7462 -0.6525 -0.1323
vn 0.7462 0.6525 0.1323
vn 0.6894 -0.7092 0.1476
vn 0.6894 0.5957 0.4121
vn 0.5276 -0.7573 0.3849
vn 0.5276 0.5476 0.6494
vn 0.2856 -0.7894 0.5434
vn 0.2856 0.5155 0.8079
vn -0.0000 -0.8007 0.5991
vn -0.0000 0.5042 0.8636
vn -0.2856 -0.7894 0.5434
vn -0.2856 0.5155 0.8079
vn -0.5276 -0.7573 0.3849
vn -0.5276 0.5476 0.6494
vn -0.6894 -0.7092 0.1476
vn -0.6894 0.5957 0.4121
vn -0.7462 -0.6525 -0.1323
vn -0.7462 0.6525 0.1323
vn -0.6894 -0.5957 -0.4121
vn -0.6894 0.7092 -0.1476
vn -0.5276 -0.5476 -0.6494
vn -0.5276 0.7573 -0.3849
vn -0.2856 -0.5155 -0.8079
vn -0.2856 0.7894 -0.5434
vt 0.000255 0.000255
vt 0.256475 0.000255
vt 0.256475 0.016269
vt 0.000255 0.016269
vt 0.256475 0.032282
vt 0.000255 0.032282
vt 0.256475 0.048296
vt 0.000255 0.048296
vt 0.256475 0.064310
vt 0.000255 0.064310
vt 0.256475 0.080324
vt 0.000255 0.080324
vt 0.256475 0.096337
vt 0.000255 0.096337
vt 0.256475 0.112351
vt 0.000255 0.112351
vt 0.256475 0.128365
vt 0.000255 0.128365
vt 0.256475 0.144378
vt 0.000255 0.144378
vt 0.256475 0.160392
vt 0.000255 0.160392
vt 0.256475 0.176406
vt 0.000255 0.176406
vt 0.256475 0.192420
vt 0.000255 0.192420
vt 0.256475 0.208433
vt 0.000255 0.208433
vt 0.256475 0.224447
vt 0.000255 0.224447
vt 0.256475 0.240461
vt 0.000255 0.240461
vt 0.256475 0.256475
vt 0.000255 0.256475
vt 0.256475 0.272488
vt 0.000255 0.272488
vt 0.256475 0.288502
vt 0.000255 0.288502
vt 0.256475 0.304516
vt 0.000255 0.304516
vt 0.256475 0.320530
vt 0.000255 0.320530
vt 0.256475 0.336543
vt 0.000255 0.336543
vt 0.256475 0.352557
vt 0.000255 0.352557
vt 0.256475 0.368571
vt 0.000255 0.368571
vt 0.256475 0.384585
vt 0.000255 0.384585
vt 0.256475 0.400598
vt 0.000255 0.400598
vt 0.256475 0.416612
vt 0.000255 0.416612
vt 0.256475 0.432626
vt 0.000255 0.432626
vt 0.256475 0.448639
vt 0.000255 0.448639
vt 0.256475 0.464653
vt 0.000255 0.464653
vt 0.256475 0.480667
vt 0.000255 0.480667
vt 0.636729 0.757991
vt 0.612619 0.757991
vt 0.588973 0.753287
vt 0.566699 0.744061
vt 0.546653 0.730666
vt 0.529605 0.713619
vt 0.516210 0.693572
vt 0.506984 0.671298
vt 0.502281 0.647652
vt 0.502281 0.623543
vt 0.506984 0.599897
vt 0.516210 0.577622
vt 0.529605 0.557576
vt 0.546653 0.540528
vt 0.566699 0.527134
vt 0.588973 0.517908
vt 0.612619 0.513204
vt 0.636729 0.513204
vt 0.660375 0.517908
vt 0.682649 0.527134
vt 0.702695 0.540528
vt 0.719743 0.557576
vt 0.733137 0.577622
vt 0.742364 0.599897
vt 0.747067 0.623543
vt 0.747067 0.647652
vt 0.742364 0.671298
vt 0.733137 0.693572
vt 0.719743 0.713619
vt 0.702695 0.730667
vt 0.682649 0.744061
vt 0.660375 0.753287
vt 0.256475 0.496681
vt 0.000255 0.496681
vt 0.256475 0.512694
vt 0.000255 0.512694
vt 0.004958 0.671298
vt 0.014185 0.693572
vt 0.027579 0.713619
vt 0.044627 0.730667
vt 0.064673 0.744061
vt 0.086947 0.753287
vt 0.110593 0.757991
vt 0.134703 0.757991
vt 0.158349 0.753287
vt 0.180623 0.744061
vt 0.200669 0.730666
vt 0.217717 0.713619
vt 0.231112 0.693572
vt 0.240338 0.671298
vt 0.245041 0.647652
vt 0.245041 0.623543
vt 0.240338 0.599897
vt 0.231112 0.577622
vt 0.217717 0.557576
vt 0.200669 0.540528
vt 0.180623 0.527134
vt 0.158349 0.517908
vt 0.134703 0.513204
vt 0.110593 0.513204
vt 0.086947 0.517908
vt 0.064673 0.527134
vt 0.044627 0.540528
vt 0.027579 0.557576
vt 0.014185 0.577622
vt 0.004958 0.599897
vt 0.000255 0.623543
vt 0.000255 0.647652
vt 0.256984 0.000255
vt 0.513204 0.000255
vt 0.513204 0.016269
vt 0.256984 0.016269
vt 0.513204 0.032282
vt 0.256984 0.032282
vt 0.513204 0.048296
vt 0.256984 0.048296
vt 0.513204 0.064310
vt 0.256984 0.064310
vt 0.513204 0.080324
vt 0.256984 0.080324
vt 0.513204 0.096337
vt 0.256984 0.096337
vt 0.513204 0.112351
vt 0.256984 0.112351
vt 0.513204 0.128365
vt 0.256984 0.128365
vt 0.513204 0.144378
vt 0.256984 0.144378
vt 0.513204 0.160392
vt 0.256984 0.160392
vt 0.513204 0.176406
vt 0.256984 0.176406
vt 0.513204 0.192420
vt 0.256984 0.192420
vt 0.513204 0.208433
vt 0.256984 0.208433
vt 0.513204 0.224447
vt 0.256984 0.224447
vt 0.513204 0.240461
vt 0.256984 0.240461
vt 0.513204 0.256475
vt 0.256984 0.256475
vt 0.513204 0.272488
vt 0.256984 0.272488
vt 0.513204 0.288502
vt 0.256984 0.288502
vt 0.513204 0.304516
vt 0.256984 0.304516
vt 0.513204 0.320530
vt 0.256984 0.320530
vt 0.513204 0.336543
vt 0.256984 0.336543
vt 0.513204 0.352557
vt 0.256984 0.352557
vt 0.513204 0.368571
vt 0.256984 0.368571
vt 0.513204 0.384584
vt 0.256984 0.384585
vt 0.513204 0.400598
vt 0.256984 0.400598
vt 0.513204 0.416612
vt 0.256984 0.416612
vt 0.513204 0.432626
vt 0.256984 0.432626
vt 0.513204 0.448639
vt 0.256984 0.448639
vt 0.513204 0.464653
vt 0.256984 0.464653
vt 0.513204 0.480667
vt 0.256984 0.480667
vt 0.882025 0.757991
vt 0.857915 0.757991
vt 0.834269 0.753287
vt 0.811995 0.744061
vt 0.791949 0.730666
vt 0.774901 0.713619
vt 0.761507 0.693572
vt 0.752280 0.671298
vt 0.747577 0.647652
vt 0.747577 0.623543
vt 0.752280 0.599897
vt 0.761507 0.577622
vt 0.774901 0.557576
vt 0.791949 0.540528
vt 0.811995 0.527134
vt 0.834269 0.517908
vt 0.857916 0.513204
vt 0.882025 0.513204
vt 0.905671 0.517908
vt 0.927945 0.527134
vt 0.947991 0.540528
vt 0.965039 0.557576
vt 0.978434 0.577622
vt 0.987660 0.599897
vt 0.992363 0.623543
vt 0.992363 0.647652
vt 0.987660 0.671298
vt 0.978434 0.693572
vt 0.965039 0.713619
vt 0.947991 0.730667
vt 0.927945 0.744061
vt 0.905671 0.753287
vt 0.513204 0.496681
vt 0.256984 0.496681
vt 0.513204 0.512694
vt 0.256984 0.512694
vt 0.261688 0.671298
vt 0.270914 0.693572
vt 0.284309 0.713619
vt 0.301356 0.730667
vt 0.321403 0.744061
vt 0.343677 0.753287
vt 0.367323 0.757991
vt 0.391432 0.757991
vt 0.415078 0.753287
vt 0.437353 0.744061
vt 0.457399 0.730666
vt 0.474447 0.713619
vt 0.487841 0.693572
vt 0.497067 0.671298
vt 0.501771 0.647652
vt 0.501771 0.623543
vt 0.497067 0.599897
vt 0.487841 0.577622
vt 0.474447 0.557576
vt 0.457399 0.540528
vt 0.437353 0.527134
vt 0.415078 0.517908
vt 0.391432 0.513204
vt 0.367323 0.513204
vt 0.343677 0.517908
vt 0.321403 0.527134
vt 0.301356 0.540528
vt 0.284309 0.557576
vt 0.270914 0.577622
vt 0.261688 0.599897
vt 0.256984 0.623543
vt 0.256984 0.647652
vt 0.513714 0.000255
vt 0.769934 0.000255
vt 0.769934 0.032282
vt 0.513714 0.032282
vt 0.769934 0.064310
vt 0.513714 0.064310
vt 0.769934 0.096337
vt 0.513714 0.096337
vt 0.769934 0.128365
vt 0.513714 0.128365
vt 0.769934 0.160392
vt 0.513714 0.160392
vt 0.769934 0.192420
vt 0.513714 0.192420
vt 0.769934 0.224447
vt 0.513714 0.224447
vt 0.769934 0.256475
vt 0.513714 0.256475
vt 0.769934 0.288502
vt 0.513714 0.288502
vt 0.769934 0.320530
vt 0.513714 0.320530
vt 0.769934 0.352557
vt 0.513714 0.352557
vt 0.769934 0.384584
vt 0.513714 0.384584
vt 0.769934 0.416612
vt 0.513714 0.416612
vt 0.769934 0.448639
vt 0.513714 0.448639
vt 0.430959 0.981381
vt 0.386625 0.999745
vt 0.338638 0.999745
vt 0.294305 0.981382
vt 0.260373 0.947450
vt 0.242009 0.903116
vt 0.242009 0.855130
vt 0.260373 0.810796
vt 0.294305 0.776864
vt 0.338638 0.758500
vt 0.386625 0.758500
vt 0.430959 0.776864
vt 0.464890 0.810796
vt 0.483254 0.855129
vt 0.483254 0.903116
vt 0.464890 0.947450
vt 0.769934 0.480667
vt 0.513714 0.480667
vt 0.769934 0.512694
vt 0.513714 0.512694
vt 0.241500 0.903116
vt 0.241500 0.855130
vt 0.223136 0.810796
vt 0.189204 0.776864
vt 0.144871 0.758500
vt 0.096884 0.758500
vt 0.052550 0.776864
vt 0.018619 0.810796
vt 0.000255 0.855130
vt 0.000255 0.903116
vt 0.018619 0.947450
vt 0.052550 0.981381
vt 0.096884 0.999745
vt 0.144870 0.999745
vt 0.189204 0.981382
vt 0.223136 0.947450
s 1
f 1/1/1 2/2/2 4/3/4 3/4/3
f 3/4/3 4/3/4 6/5/6 5/6/5
f 5/6/5 6/5/6 8/7/8 7/8/7
f 7/8/7 8/7/8 10/9/10 9/10/9
f 9/10/9 10/9/10 12/11/12 11/12/11
f 11/12/11 12/11/12 14/13/14 13/14/13
f 13/14/13 14/13/14 16/15/16 15/16/15
f 15/16/15 16/15/16 18/17/18 17/18/17
f 17/18/17 18/17/18 20/19/20 19/20/19
f 19/20/19 20/19/20 22/21/22 21/22/21
f 21/22/21 22/21/22 24/23/24 23/24/23
f 23/24/23 24/23/24 26/25/26 25/26/25
f 25/26/25 26/25/26 28/27/28 27/28/27
f 27/28/27 28/27/28 30/29/30 29/30/29
f 29/30/29 30/29/30 32/31/32 31/32/31
f 31/32/31 32/31/32 34/33/34 33/34/33
f 33/34/33 34/33/34 36/35/36 35/36/35
f 35/36/35 36/35/36 38/37/38 37/38/37
f 37/38/37 38/37/38 40/39/40 39/40/39
f 39/40/39 40/39/40 42/41/42 41/42/41
f 41/42/41 42/41/42 44/43/44 43/44/43
f 43/44/43 44/43/44 46/45/46 45/46/45
f 45/46/45 46/45/46 48/47/48 47/48/47
f 47/48/47 48/47/48 50/49/50 49/50/49
f 49/50/49 50/49/50 52/51/52 51/52/51
f 51/52/51 52/51/52 54/53/54 53/54/53
f 53/54/53 54/53/54 56/55/56 55/56/55
f 55/56/55 56/55/56 58/57/58 57/58/57
f 57/58/57 58/57/58 60/59/60 59/60/59
f 59/60/59 60/59/60 62/61/62 61/62/61
f 4/63/4 2/64/2 64/65/64 62/66/62 60/67/60 58/68/58 56/69/56 54/70/54 52/71/52 50/72/50 48/73/48 46/74/46 44/75/44 42/76/42 40/77/40 38/78/38 36/79/36 34/80/34 32/81/32 30/82/30 28/83/28 26/84/26 24/85/24 22/86/22 20/87/20 18/88/18 16/89/16 14/90/14 12/91/12 10/92/10 8/93/8 6/94/6
f 61/62/61 62/61/62 64/95/64 63/96/63
f 63/96/63 64/95/64 2/97/2 1/98/1
f 1/99/1 3/100/3 5/101/5 7/102/7 9/103/9 11/104/11 13/105/13 15/106/15 17/107/17 19/108/19 21/109/21 23/110/23 25/111/25 27/112/27 29/113/29 31/114/31 33/115/33 35/116/35 37/117/37 39/118/39 41/119/41 43/120/43 45/121/45 47/122/47 49/123/49 51/124/51 53/125/53 55/126/55 57/127/57 59/128/59 61/129/61 63/130/63
f 65/131/65 66/132/66 68/133/68 67/134/67
f 67/134/67 68/133/68 70/135/70 69/136/69
f 69/136/69 70/135/70 72/137/72 71/138/71
f 71/138/71 72/137/72 74/139/74 73/140/73
f 73/140/73 74/139/74 76/141/76 75/142/75
f 75/142/75 76/141/76 78/143/78 77/144/77
f 77/144/77 78/143/78 80/145/80 79/146/79
f 79/146/79 80/145/80 82/147/82 81/148/81
f 81/148/81 82/147/82 84/149/84 83/150/83
f 83/150/83 84/149/84 86/151/86 85/152/85
f 85/152/85 86/151/86 88/153/88 87/154/87
f 87/154/87 88/153/88 90/155/90 89/156/89
f 89/156/89 90/155/90 92/157/92 91/158/91
f 91/158/91 92/157/92 94/159/94 93/160/93
f 93/160/93 94/159/94 96/161/96 95/162/95
f 95/162/95 96/161/96 98/163/98 97/164/97
f 97/164/97 98/163/98 100/165/100 99/166/99
f 99/166/99 100/165/100 102/167/102 101/168/101
f 101/168/101 102/167/102 104/169/104 103/170/103
f 103/170/103 104/169/104 106/171/106 105/172/105
f 105/172/105 106/171/106 108/173/108 107/174/107
f 107/174/107 108/173/108 110/175/110 109/176/109
f 109/176/109 110/175/110 112/177/112 111/178/111
f 111/178/111 112/177/112 114/179/114 113/180/113
f 113/180/113 114/179/114 116/181/116 115/182/115
f 115/182/115 116/181/116 118/183/118 117/184/117
f 117/184/117 118/183/118 120/185/120 119/186/119
f 119/186/119 120/185/120 122/187/122 121/188/121
f 121/188/121 122/187/122 124/189/124 123/190/123
f 123/190/123 124/189/124 126/191/126 125/192/125
f 68/193/68 66/194/66 128/195/128 126/196/126 124/197/124 122/198/122 120/199/120 118/200/118 116/201/116 114/202/114 112/203/112 110/204/110 108/205/108 106/206/106 104/207/104 102/208/102 100/209/100 98/210/98 96/211/96 94/212/94 92/213/92 90/214/90 88/215/88 86/216/86 84/217/84 82/218/82 80/219/80 78/220/78 76/221/76 74/222/74 72/223/72 70/224/70
f 125/192/125 126/191/126 128/225/128 127/226/127
f 127/226/127 128/225/128 66/227/66 65/228/65
f 65/229/65 67/230/67 69/231/69 71/232/71 73/233/73 75/234/75 77/235/77 79/236/79 81/237/81 83/238/83 85/239/85 87/240/87 89/241/89 91/242/91 93/243/93 95/244/95 97/245/97 99/246/99 101/247/101 103/248/103 105/249/105 107/250/107 109/251/109 111/252/111 113/253/113 115/254/115 117/255/117 119/256/119 121/257/121 123/258/123 125/259/125 127/260/127
f 129/261/129 130/262/130 132/263/132 131/264/131
f 131/264/131 132/263/132 134/265/134 133/266/133
f 133/266/133 134/265/134 136/267/136 135/268/135
f 135/268/135 136/267/136 138/269/138 137/270/137
f 137/270/137 138/269/138 140/271/140 139/272/139
f 139/272/139 140/271/140 142/273/142 141/274/141
f 141/274/141 142/273/142 144/275/144 143/276/143
f 143/276/143 144/275/144 146/277/146 145/278/145
f 145/278/145 146/277/146 148/279/148 147/280/147
f 147/280/147 148/279/148 150/281/150 149/282/149
f 149/282/149 150/281/150 152/283/152 151/284/151
f 151/284/151 152/283/152 154/285/154 153/286/153
f 153/286/153 154/285/154 156/287/156 155/288/155
f 155/288/155 156/287/156 158/289/158 157/290/157
f 132/291/132 130/292/130 160/293/160 158/294/158 156/295/156 154/296/154 152/297/152 150/298/150 148/299/148 146/300/146 144/301/144 142/302/142 140/303/140 138/304/138 136/305/136 134/306/134
f 157/290/157 158/289/158 160/307/160 159/308/159
f 159/308/159 160/307/160 130/309/130 129/310/129
f 129/311/129 131/312/131 133/313/133 135/314/135 137/315/137 139/316/139 141/317/141 143/318/143 145/319/145 147/320/147 149/321/149 151/322/151 153/323/153 155/324/155 157/325/157 159/326/159
